<svg version="1.2" xmlns="http://www.w3.org/2000/svg" viewBox="0 0 30 21" width="30" height="21"><defs><clipPath clipPathUnits="userSpaceOnUse" id="cp1"><path d="m15 15.75c-2.9 0-5.25-2.35-5.25-5.25 0-2.9 2.35-5.25 5.25-5.25 2.9 0 5.25 2.35 5.25 5.25 0 2.9-2.35 5.25-5.25 5.25z"/></clipPath><clipPath clipPathUnits="userSpaceOnUse" id="cp2"><path d="m16.63 9.79l0.2-0.46 0.41 0.18-0.06 0.15-0.21-0.09-0.04 0.08 0.21 0.09-0.1 0.23z"/></clipPath><clipPath clipPathUnits="userSpaceOnUse" id="cp3"><path d="m16.63 9.79l0.2-0.46 0.41 0.18-0.06 0.15-0.21-0.09-0.04 0.08 0.21 0.09-0.1 0.23z"/></clipPath></defs><style>.a{fill:#009440}.b{fill:#ffcb00}.c{fill:#302681}.d{fill:#fff}</style><path fill-rule="evenodd" class="a" d="m30 0v21h-30v-21z"/><path class="b" d="m2.6 10.5l12.4 7.9 12.5-7.9-12.5-7.9z"/><path fill-rule="evenodd" class="c" d="m15 15.8c-2.9-0.1-5.3-2.4-5.3-5.3 0-2.9 2.4-5.3 5.3-5.3 2.9 0 5.3 2.4 5.3 5.3 0 2.9-2.4 5.2-5.3 5.2z"/><g clip-path="url(#cp1)"><path class="d" d="m-0.8 21c0.1-3.4 1.4-6.6 3.8-9 2.4-2.4 5.6-3.7 9-3.8 3.4 0.1 6.6 1.4 9 3.8 2.4 2.4 3.8 5.6 3.7 9h-0.7c0-3.2-1.3-6.2-3.5-8.5-2.3-2.2-5.3-3.5-8.5-3.5-3.2 0-6.2 1.3-8.5 3.5-2.2 2.3-3.5 5.3-3.5 8.5z"/></g><path fill-rule="evenodd" class="a" d="m10.4 8.9q-0.1-0.1-0.1-0.2 0-0.1 0-0.1 0.1-0.1 0.2-0.1 0.1 0 0.1 0 0.1 0.1 0.1 0.2 0 0.1 0 0.2-0.1 0.1-0.2 0.1-0.1 0-0.1-0.1zm0.1 0q0.1 0 0.1-0.1 0 0 0-0.1 0-0.1 0-0.1-0.1 0-0.1 0-0.1 0-0.1 0 0 0.1 0 0.1 0 0.1 0 0.1 0.1 0.1 0.1 0.1z"/><path fill-rule="evenodd" class="a" d="m10.9 8.4h0.3q0.1 0 0.1 0 0 0.1 0.1 0.1 0 0.1-0.1 0.2 0 0-0.1 0h-0.2v0.2h-0.1zm0.1 0.2h0.2q0 0 0.1 0 0 0 0 0 0-0.1 0-0.1-0.1 0-0.1 0h-0.2z"/><path class="a" d="m11.4 8.9c-0.1-0.1-0.1-0.2-0.2-0.2h-0.1c0.2 0 0.2 0.1 0.2 0.2"/><path fill-rule="evenodd" class="a" d="m11.6 8.4h0.2q0 0 0.1 0 0 0 0 0 0.1 0.1 0.1 0.1 0 0 0 0.1v0.1q0 0 0 0 0 0.1-0.1 0.1 0 0 0 0.1-0.1 0-0.1 0h-0.2zm0.1 0.4h0.1q0 0 0.1 0 0 0 0-0.1 0 0 0 0 0 0 0-0.1 0 0 0 0 0-0.1 0-0.1 0 0-0.1 0 0 0 0 0h-0.1z"/><path class="a" d="m12.2 8.9h0.4l0.1-0.1h-0.4v-0.1h0.3v-0.1h-0.3v-0.1h0.3v-0.1h-0.4z"/><path class="a" d="m12.8 8.9h0.1v-0.3l0.1 0.3h0.1l0.1-0.3v0.3h0.1v-0.5h-0.1l-0.1 0.4-0.1-0.4h-0.1z"/><path class="a" d="m13.9 9l0.3 0.1 0.1-0.1-0.3-0.1v-0.1l0.2 0.1v-0.1h-0.2v-0.1h0.3v-0.1h-0.4z"/><path fill-rule="evenodd" class="a" d="m15 8.7l0.2 0.1q0.1 0 0.1 0.1 0.1 0 0 0.1 0 0 0 0.1-0.1 0-0.2 0l-0.1-0.1-0.1 0.2h-0.1zm0 0.2l0.2 0.1q0.1 0 0.1 0 0 0 0-0.1 0 0 0 0 0 0 0 0l-0.2-0.1z"/><path fill-rule="evenodd" class="a" d="m15.6 8.9l0.3 0.1q0 0 0.1 0.1 0 0 0 0.1-0.1 0-0.1 0.1-0.1 0-0.1 0l-0.2-0.1-0.1 0.2h-0.1zm0 0.2l0.2 0.1q0.1 0 0.1 0 0-0.1 0-0.1 0 0 0 0 0-0.1 0-0.1h-0.2z"/><path class="a" d="m15.8 9.5c0.1-0.1 0.1-0.2 0-0.3h-0.1c0.1 0.1 0.1 0.2 0.1 0.3"/><path fill-rule="evenodd" class="a" d="m16.1 9.5q0-0.1 0-0.2 0.1-0.1 0.1-0.1 0.1-0.1 0.2 0 0.1 0 0.1 0.1 0.1 0.1 0 0.2 0 0.1-0.1 0.1-0.1 0.1-0.2 0 0 0-0.1-0.1zm0.2 0.1q0 0 0.1-0.1 0 0 0.1 0 0-0.1 0-0.2-0.1 0-0.1 0-0.1-0.1-0.1 0-0.1 0-0.1 0.1 0 0 0 0.1 0 0 0.1 0.1z"/><g clip-path="url(#cp2)"><g clip-path="url(#cp3)"><path fill-rule="evenodd" class="a" d="m16.7 9.8q0-0.1 0-0.2 0.1-0.1 0.2-0.2 0 0 0.1 0 0.1 0.1 0.2 0.2 0 0-0.1 0.1 0 0.1-0.1 0.2-0.1 0-0.2 0 0-0.1-0.1-0.1zm0.2 0q0 0 0.1 0 0 0 0.1-0.1 0-0.1 0-0.1-0.1-0.1-0.1-0.1-0.1 0-0.1 0-0.1 0-0.1 0.1 0 0.1 0 0.1 0 0.1 0.1 0.1z"/></g></g><path class="a" d="m17 9.7h0.1v0.1l-0.2-0.1z"/><path class="a" d="m17.1 9.7l-0.1 0.3v-0.1z"/><path fill-rule="evenodd" class="a" d="m17.4 9.6l0.3 0.1q0.1 0.1 0.1 0.1 0 0.1 0 0.1-0.1 0.1-0.1 0.1-0.1 0-0.1 0l-0.2-0.1-0.1 0.2-0.1-0.1zm0 0.3l0.2 0.1q0 0 0 0 0 0 0-0.1 0.1 0 0 0 0 0 0 0l-0.2-0.1z"/><path class="a" d="m17.6 10.2c0 0 0.1-0.2 0-0.2l-0.1-0.1c0.1 0.1 0 0.2 0 0.3"/><path class="a" d="m17.8 10.3l0.4 0.3v-0.1l-0.3-0.2 0.1-0.1 0.2 0.1-0.2-0.2v-0.1l0.3 0.2 0.1-0.1-0.4-0.2z"/><path class="a" d="m18.5 10.6q0 0 0.1 0.1 0.1 0.1 0.1 0c0-0.1-0.3-0.2-0.2-0.3 0.1-0.2 0.2-0.1 0.3 0 0.1 0 0.1 0.1 0.1 0.2l-0.1-0.1q0 0-0.1-0.1 0 0-0.1 0c0 0.1 0.3 0.2 0.2 0.4-0.1 0.1-0.2 0-0.3 0-0.1-0.1-0.2-0.2-0.1-0.3z"/><path class="a" d="m19 10.9q0 0.1 0.1 0.2 0.1 0 0.1 0c0.1-0.1-0.2-0.2-0.1-0.4 0.1-0.1 0.2 0 0.2 0 0.1 0.1 0.2 0.2 0.1 0.3l-0.1-0.1q0.1-0.1 0-0.1-0.1-0.1-0.1 0c-0.1 0 0.2 0.2 0.1 0.3-0.1 0.1-0.2 0.1-0.3 0 0 0-0.1-0.1-0.1-0.2z"/><path fill-rule="evenodd" class="a" d="m19.5 11.4q0-0.1 0-0.2 0.1-0.1 0.2-0.1 0.1 0 0.2 0 0 0.1 0 0.2 0 0.1 0 0.2-0.1 0-0.2 0.1-0.1 0-0.2-0.1 0 0 0-0.1zm0.1 0q0 0.1 0.1 0.1 0.1-0.1 0.1-0.1 0-0.1 0-0.1 0-0.1 0-0.1 0 0-0.1 0-0.1 0-0.1 0 0 0.1 0 0.1 0 0.1 0 0.1z"/><path class="d" d="m10.7 9.3l-0.1 0.2 0.2 0.1"/><path class="d" d="m10.7 9.3l0.1 0.2-0.1 0.1"/><path class="d" d="m10.9 9.5h-0.2v0.1"/><path class="d" d="m10.9 9.5l-0.2 0.1v-0.1"/><path class="d" d="m10.5 9.5l0.2 0.1v-0.1"/><path class="d" d="m10.5 9.5h0.2v0.1"/><path class="d" d="m10.8 9.7v-0.2l-0.1 0.1"/><path class="d" d="m10.8 9.7l-0.1-0.1v-0.1"/><path class="d" d="m10.6 9.7l0.2-0.1-0.1-0.1"/><path class="d" d="m10.6 9.7l0.1-0.2 0.1 0.1"/><path class="d" d="m11.2 11.5l-0.1 0.3h0.1"/><path class="d" d="m11.2 11.5v0.3h-0.1"/><path class="d" d="m11.4 11.7h-0.2v0.1"/><path class="d" d="m11.4 11.7l-0.2 0.1-0.1-0.1"/><path class="d" d="m11 11.7l0.1 0.1 0.1-0.1"/><path class="d" d="m11 11.7h0.2v0.1"/><path class="d" d="m11.3 11.9l-0.1-0.2-0.1 0.1"/><path class="d" d="m11.3 11.9l-0.2-0.1 0.1-0.1"/><path class="d" d="m11 11.9l0.2-0.1v-0.1"/><path class="d" d="m11 11.9l0.1-0.2 0.1 0.1"/><path class="d" d="m10.5 12v0.2l0.1 0.1"/><path class="d" d="m10.5 12l0.1 0.2-0.1 0.1"/><path class="d" d="m10.7 12.2h-0.2v0.1"/><path class="d" d="m10.7 12.2l-0.1 0.1-0.1-0.1"/><path class="d" d="m10.4 12.2l0.1 0.1 0.1-0.1"/><path class="d" d="m10.4 12.2h0.1v0.1"/><path class="d" d="m10.6 12.4v-0.2h-0.1"/><path class="d" d="m10.6 12.4l-0.1-0.1v-0.1"/><path class="d" d="m10.4 12.4l0.2-0.1-0.1-0.1"/><path class="d" d="m10.4 12.4l0.1-0.2h0.1"/><path class="d" d="m11.7 11.3v0.1 0.1"/><path class="d" d="m11.7 11.3v0.1 0.1"/><path class="d" d="m11.8 11.4h-0.1v0.1"/><path class="d" d="m11.8 11.4l-0.1 0.1v-0.1"/><path class="d" d="m11.6 11.4l0.1 0.1v-0.1"/><path class="d" d="m11.6 11.4h0.1v0.1"/><path class="d" d="m11.8 11.5l-0.1-0.1"/><path class="d" d="m11.8 11.5h-0.1v-0.1"/><path class="d" d="m11.6 11.5h0.1v-0.1"/><path class="d" d="m11.6 11.5l0.1-0.1"/><path class="d" d="m12.3 12.1l-0.1 0.2h0.1"/><path class="d" d="m12.3 12.1v0.2h-0.1"/><path class="d" d="m12.4 12.2h-0.1v0.1"/><path class="d" d="m12.4 12.2l-0.1 0.1h-0.1"/><path class="d" d="m12.1 12.2l0.1 0.1h0.1"/><path class="d" d="m12.1 12.2h0.2v0.1"/><path class="d" d="m12.4 12.4l-0.1-0.1h-0.1"/><path class="d" d="m12.4 12.4l-0.2-0.1h0.1"/><path class="d" d="m12.2 12.4l0.1-0.1"/><path class="d" d="m12.2 12.4v-0.1h0.1"/><path class="d" d="m12.1 12.7v0.1"/><path class="d" d="m12.1 12.7l0.1 0.1h-0.1"/><path class="d" d="m12.3 12.8h-0.2"/><path class="d" d="m12.3 12.8h-0.2"/><path class="d" d="m12 12.8h0.1"/><path class="d" d="m12 12.8h0.1"/><path class="d" d="m12.2 12.9v-0.1h-0.1"/><path class="d" d="m12.2 12.9l-0.1-0.1"/><path class="d" d="m12 12.9l0.1-0.1"/><path class="d" d="m12 12.9l0.1-0.1"/><path class="d" d="m16.6 8.6v0.3h0.1"/><path class="d" d="m16.6 8.6l0.1 0.3h-0.1"/><path class="d" d="m16.8 8.8h-0.2v0.1"/><path class="d" d="m16.8 8.8l-0.1 0.1-0.1-0.1"/><path class="d" d="m16.4 8.8l0.2 0.1 0.1-0.1"/><path class="d" d="m16.4 8.8h0.2v0.1"/><path class="d" d="m16.8 9.1l-0.1-0.3-0.1 0.1"/><path class="d" d="m16.8 9.1l-0.2-0.2v-0.1"/><path class="d" d="m16.5 9.1l0.2-0.2-0.1-0.1"/><path class="d" d="m16.5 9.1l0.1-0.3 0.1 0.1"/><path class="d" d="m18.7 12.1l-0.1 0.2 0.1 0.1"/><path class="d" d="m18.7 12.1v0.2l-0.1 0.1"/><path class="d" d="m18.9 12.3h-0.2v0.1"/><path class="d" d="m18.9 12.3l-0.2 0.1-0.1-0.1"/><path class="d" d="m18.5 12.3l0.1 0.1 0.1-0.1"/><path class="d" d="m18.5 12.3h0.2v0.1"/><path class="d" d="m18.8 12.5l-0.1-0.2h-0.1"/><path class="d" d="m18.8 12.5l-0.2-0.1 0.1-0.1"/><path class="d" d="m18.5 12.5l0.2-0.1v-0.1"/><path class="d" d="m18.5 12.5l0.1-0.2h0.1"/><path class="d" d="m19.4 12.2v0.2"/><path class="d" d="m19.4 12.2l0.1 0.2h-0.1"/><path class="d" d="m19.5 12.3h-0.1v0.1"/><path class="d" d="m19.5 12.3l-0.1 0.1"/><path class="d" d="m19.3 12.3l0.1 0.1"/><path class="d" d="m19.3 12.3h0.1v0.1"/><path class="d" d="m19.5 12.5l-0.1-0.1"/><path class="d" d="m19.5 12.5l-0.1-0.1"/><path class="d" d="m19.3 12.5l0.1-0.1"/><path class="d" d="m19.3 12.5l0.1-0.1"/><path class="d" d="m18.9 12.6l-0.1 0.2h0.1"/><path class="d" d="m18.9 12.6l0.1 0.2h-0.1"/><path class="d" d="m19.1 12.7h-0.2v0.1"/><path class="d" d="m19.1 12.7l-0.2 0.2v-0.1"/><path class="d" d="m18.7 12.7l0.2 0.2v-0.1"/><path class="d" d="m18.7 12.7h0.2v0.1"/><path class="d" d="m19 13l-0.1-0.2"/><path class="d" d="m19 13l-0.1-0.2"/><path class="d" d="m18.8 13l0.1-0.2"/><path class="d" d="m18.8 13v-0.2h0.1"/><path class="d" d="m17.6 13.7v0.2h0.1"/><path class="d" d="m17.6 13.7l0.1 0.2h-0.1"/><path class="d" d="m17.8 13.8h-0.2v0.1"/><path class="d" d="m17.8 13.8l-0.1 0.2-0.1-0.1"/><path class="d" d="m17.5 13.8l0.1 0.2 0.1-0.1"/><path class="d" d="m17.5 13.8h0.1v0.1"/><path class="d" d="m17.7 14.1v-0.2h-0.1"/><path class="d" d="m17.7 14.1l-0.1-0.2"/><path class="d" d="m17.5 14.1l0.2-0.2h-0.1"/><path class="d" d="m17.5 14.1l0.1-0.2h0.1"/><path class="d" d="m17.6 14.3v0.1 0.1"/><path class="d" d="m17.6 14.3l0.1 0.1-0.1 0.1"/><path class="d" d="m17.8 14.4h-0.2v0.1"/><path class="d" d="m17.8 14.4l-0.2 0.1v-0.1"/><path class="d" d="m17.5 14.4l0.1 0.1v-0.1"/><path class="d" d="m17.5 14.4h0.1v0.1"/><path class="d" d="m17.7 14.6v-0.2h-0.1"/><path class="d" d="m17.7 14.6l-0.1-0.1v-0.1"/><path class="d" d="m17.5 14.6l0.2-0.1-0.1-0.1"/><path class="d" d="m17.5 14.6l0.1-0.2h0.1"/><path class="d" d="m18.2 13.3l-0.1 0.2h0.1"/><path class="d" d="m18.2 13.3v0.2h-0.1"/><path class="d" d="m18.3 13.4h-0.2v0.1"/><path class="d" d="m18.3 13.4l-0.1 0.1h-0.1"/><path class="d" d="m18 13.4l0.1 0.1h0.1"/><path class="d" d="m18 13.4h0.2v0.1"/><path class="d" d="m18.2 13.6v-0.1h-0.1"/><path class="d" d="m18.2 13.6l-0.1-0.1h0.1"/><path class="d" d="m18.1 13.6l0.1-0.1h-0.1"/><path class="d" d="m18.1 13.6v-0.1h0.1"/><path class="d" d="m18.6 13l-0.1 0.2h0.1"/><path class="d" d="m18.6 13v0.2h-0.1"/><path class="d" d="m18.7 13.2h-0.1v0.1"/><path class="d" d="m18.7 13.2l-0.1 0.1-0.1-0.1"/><path class="d" d="m18.4 13.2l0.1 0.1 0.1-0.1"/><path class="d" d="m18.4 13.2h0.2v0.1"/><path class="d" d="m18.7 13.4l-0.1-0.2h-0.1"/><path class="d" d="m18.7 13.4l-0.2-0.1 0.1-0.1"/><path class="d" d="m18.5 13.4l0.1-0.1v-0.1"/><path class="d" d="m18.5 13.4v-0.2h0.1"/><path class="d" d="m17.6 13.2v0.2"/><path class="d" d="m17.6 13.2l0.1 0.2h-0.1"/><path class="d" d="m17.7 13.3h-0.1v0.1"/><path class="d" d="m17.7 13.3l-0.1 0.1"/><path class="d" d="m17.5 13.3l0.1 0.1"/><path class="d" d="m17.5 13.3h0.1v0.1"/><path class="d" d="m17.7 13.5l-0.1-0.1"/><path class="d" d="m17.7 13.5l-0.1-0.1"/><path class="d" d="m17.5 13.5l0.1-0.1"/><path class="d" d="m17.5 13.5l0.1-0.1"/><path class="d" d="m13 10.5l-0.1 0.2h0.1"/><path class="d" d="m13 10.5l0.1 0.2h-0.1"/><path class="d" d="m13.2 10.7h-0.2v0.1"/><path class="d" d="m13.2 10.7l-0.2 0.1v-0.1"/><path class="d" d="m12.8 10.7l0.2 0.1v-0.1"/><path class="d" d="m12.8 10.7h0.2v0.1"/><path class="d" d="m13.1 10.9v-0.2h-0.1"/><path class="d" d="m13.1 10.9l-0.1-0.1v-0.1"/><path class="d" d="m12.9 10.9l0.1-0.1v-0.1"/><path class="d" d="m12.9 10.9v-0.2h0.1"/><path class="d" d="m16.4 10.1v0.1l0.1 0.1"/><path class="d" d="m16.4 10.1l0.1 0.1-0.1 0.1"/><path class="d" d="m16.6 10.2h-0.2v0.1"/><path class="d" d="m16.6 10.2l-0.2 0.1v-0.1"/><path class="d" d="m16.3 10.2l0.1 0.1 0.1-0.1"/><path class="d" d="m16.3 10.2h0.1v0.1"/><path class="d" d="m16.5 10.4v-0.2h-0.1"/><path class="d" d="m16.5 10.4l-0.1-0.1v-0.1"/><path class="d" d="m16.3 10.4l0.2-0.1-0.1-0.1"/><path class="d" d="m16.3 10.4l0.1-0.2h0.1"/><path class="d" d="m15 12.6l-0.1 0.2 0.1 0.1"/><path class="d" d="m15 12.6l0.1 0.2-0.1 0.1"/><path class="d" d="m15.2 12.8h-0.2v0.1"/><path class="d" d="m15.2 12.8l-0.2 0.1v-0.1"/><path class="d" d="m14.8 12.8l0.2 0.1v-0.1"/><path class="d" d="m14.8 12.8h0.2v0.1"/><path class="d" d="m15.1 13v-0.2l-0.1 0.1"/><path class="d" d="m15.1 13l-0.1-0.1v-0.1"/><path class="d" d="m14.9 13l0.1-0.1v-0.1"/><path class="d" d="m14.9 13v-0.2l0.1 0.1"/><path class="d" d="m15.6 11.6l-0.1 0.2h0.1"/><path class="d" d="m15.6 11.6l0.1 0.2h-0.1"/><path class="d" d="m15.8 11.8h-0.2v0.1"/><path class="d" d="m15.8 11.8l-0.2 0.1v-0.1"/><path class="d" d="m15.4 11.8l0.2 0.1v-0.1"/><path class="d" d="m15.4 11.8h0.2v0.1"/><path class="d" d="m15.7 12v-0.2h-0.1"/><path class="d" d="m15.7 12l-0.1-0.1v-0.1"/><path class="d" d="m15.5 12l0.1-0.1v-0.1"/><path class="d" d="m15.5 12l0.1-0.2"/><path class="d" d="m15 11.2l-0.1 0.1 0.1 0.1"/><path class="d" d="m15 11.2l0.1 0.1-0.1 0.1"/><path class="d" d="m15.2 11.3h-0.2v0.1"/><path class="d" d="m15.2 11.3l-0.2 0.1v-0.1"/><path class="d" d="m14.8 11.3l0.2 0.1v-0.1"/><path class="d" d="m14.8 11.3h0.2v0.1"/><path class="d" d="m15.1 11.5v-0.2h-0.1"/><path class="d" d="m15.1 11.5l-0.1-0.1v-0.1"/><path class="d" d="m14.9 11.5l0.1-0.1v-0.1"/><path class="d" d="m14.9 11.5v-0.2h0.1"/><path class="d" d="m14.5 11.7l-0.1 0.1h0.1"/><path class="d" d="m14.5 11.7v0.1h-0.1"/><path class="d" d="m14.6 11.8h-0.1"/><path class="d" d="m14.6 11.8l-0.1 0.1-0.1-0.1"/><path class="d" d="m14.3 11.8l0.2 0.1v-0.1"/><path class="d" d="m14.3 11.8h0.2"/><path class="d" d="m14.6 11.9l-0.1-0.1h-0.1"/><path class="d" d="m14.6 11.9l-0.2-0.1h0.1"/><path class="d" d="m14.4 11.9l0.1-0.1"/><path class="d" d="m14.4 11.9v-0.1h0.1"/><path class="d" d="m14.7 12.1v0.1h0.1"/><path class="d" d="m14.7 12.1l0.1 0.1h-0.1"/><path class="d" d="m14.8 12.1h-0.1v0.1"/><path class="d" d="m14.8 12.1v0.1h-0.1"/><path class="d" d="m14.6 12.1l0.1 0.1h0.1"/><path class="d" d="m14.6 12.1h0.1v0.1"/><path class="d" d="m14.8 12.3v-0.1h-0.1"/><path class="d" d="m14.8 12.3l-0.1-0.1"/><path class="d" d="m14.7 12.3l0.1-0.1h-0.1"/><path class="d" d="m14.7 12.3v-0.1h0.1"/><path class="d" d="m16.6 13.8l-0.1 0.2 0.1 0.1"/><path class="d" d="m16.6 13.8v0.2l-0.1 0.1"/><path class="d" d="m16.7 14h-0.1v0.1"/><path class="d" d="m16.7 14l-0.1 0.1-0.1-0.1"/><path class="d" d="m16.4 14l0.1 0.1 0.1-0.1"/><path class="d" d="m16.4 14h0.2v0.1"/><path class="d" d="m16.7 14.2l-0.1-0.2h-0.1"/><path class="d" d="m16.7 14.2l-0.2-0.1 0.1-0.1"/><path class="d" d="m16.5 14.2l0.1-0.1v-0.1"/><path class="d" d="m16.5 14.2v-0.2h0.1"/><path class="d" d="m17 13.4v0.2"/><path class="d" d="m17 13.4l0.1 0.2h-0.1"/><path class="d" d="m17.2 13.5h-0.2v0.1"/><path class="d" d="m17.2 13.5l-0.2 0.1"/><path class="d" d="m16.9 13.5l0.1 0.1"/><path class="d" d="m16.9 13.5h0.1v0.1"/><path class="d" d="m17.1 13.7v-0.1h-0.1"/><path class="d" d="m17.1 13.7l-0.1-0.1v-0.1"/><path class="d" d="m16.9 13.7l0.2-0.1-0.1-0.1"/><path class="d" d="m16.9 13.7l0.1-0.1h0.1"/><path class="d" d="m16.2 13.3l-0.1 0.1 0.1 0.1"/><path class="d" d="m16.2 13.3v0.1l-0.1 0.1"/><path class="d" d="m16.3 13.4h-0.2v0.1"/><path class="d" d="m16.3 13.4l-0.1 0.1-0.1-0.1"/><path class="d" d="m16 13.4l0.1 0.1 0.1-0.1"/><path class="d" d="m16 13.4h0.2v0.1"/><path class="d" d="m16.2 13.6v-0.2h-0.1"/><path class="d" d="m16.2 13.6l-0.1-0.1 0.1-0.1"/><path class="d" d="m16.1 13.6l0.1-0.1-0.1-0.1"/><path class="d" d="m16.1 13.6v-0.2h0.1"/><path class="d" d="m12.9 13.1l-0.1 0.2h0.1"/><path class="d" d="m12.9 13.1l0.1 0.2h-0.1"/><path class="d" d="m13.1 13.2h-0.2v0.1"/><path class="d" d="m13.1 13.2l-0.2 0.1"/><path class="d" d="m12.7 13.2l0.2 0.1"/><path class="d" d="m12.7 13.2h0.2v0.1"/><path class="d" d="m13 13.5v-0.2h-0.2"/><path class="d" d="m13 13.5l-0.2-0.2 0.1-0.1"/><path class="d" d="m12.8 13.5l0.1-0.2v-0.1"/><path class="d" d="m12.8 13.5v-0.2h0.1"/><path class="d" d="m15 14.5v0.1"/><path class="d" d="m15 14.5v0.1"/><path class="d" d="m15.1 14.6h-0.1"/><path class="d" d="m15.1 14.6h-0.1"/><path class="d" d="m14.9 14.6h0.1"/><path class="d" d="m14.9 14.6h0.1"/><path class="d" d="m15 14.7v-0.1"/><path class="d" d="m15 14.7v-0.1"/><path class="d" d="m15 14.7v-0.1"/><path class="d" d="m15 14.7v-0.1"/></svg>